<svg data-v-423bf9ae="" xmlns="http://www.w3.org/2000/svg" viewBox="0 0 471 90" class="iconLeft"><!----><!----><!----><g data-v-423bf9ae="" id="54c1c5c0-edab-4b50-a0f4-071bb8e71d4f" fill="black" transform="matrix(5.758157347474804,0,0,5.758157347474804,102.80231033902172,-4.347408979475134)"><path d="M8.25 11.14C8.13 10.07 7.77 9.27 6.82 8.90C7.97 8.58 8.71 7.80 8.71 6.55C8.71 4.89 7.57 4.16 6.17 3.99C5.70 3.93 5.33 3.92 4.77 3.92L1.25 3.92L1.25 13.58L3.18 13.58L3.18 9.69L4.30 9.69C4.55 9.69 4.79 9.69 5.05 9.70C5.84 9.76 6.23 10.39 6.36 11.42C6.45 12.33 6.59 12.92 6.83 13.58L8.95 13.58C8.55 13.03 8.37 12.32 8.25 11.14ZM3.18 8.25L3.18 5.43L4.59 5.43C4.94 5.43 5.18 5.45 5.40 5.47C6.16 5.57 6.68 5.91 6.68 6.85C6.68 7.78 6.06 8.16 5.29 8.23C5.08 8.25 4.84 8.25 4.51 8.25ZM16.80 9.70C16.80 7.67 15.60 5.94 13.31 5.94C11.03 5.94 9.53 7.60 9.53 9.88C9.53 12.50 11.12 13.78 13.16 13.78C14.91 13.78 16.31 12.89 16.69 11.16L14.76 11.16C14.63 11.96 14.03 12.42 13.20 12.42C12.31 12.42 11.61 11.93 11.48 10.36L16.77 10.36C16.80 10.11 16.80 9.88 16.80 9.70ZM13.23 7.29C14.15 7.29 14.69 7.92 14.81 9.10L11.54 9.10C11.70 7.87 12.33 7.29 13.23 7.29ZM20.79 5.94C19.01 5.94 17.84 6.80 17.84 8.23C17.84 9.52 18.79 10.12 20.17 10.47C21.46 10.79 21.95 11.12 21.95 11.69C21.95 12.24 21.48 12.50 20.86 12.50C20.19 12.50 19.63 12.12 19.47 11.31L17.54 11.31C17.75 12.99 19.03 13.78 20.83 13.78C22.54 13.78 23.90 13.05 23.90 11.55C23.90 10.18 23.00 9.56 21.48 9.17C20.24 8.86 19.78 8.57 19.78 8.01C19.78 7.55 20.09 7.21 20.66 7.21C21.31 7.21 21.69 7.60 21.81 8.29L23.74 8.29C23.58 6.93 22.57 5.94 20.79 5.94ZM31.96 6.13L30.03 6.13L30.03 9.93C30.03 11.61 29.36 12.40 28.39 12.40C27.50 12.40 27.05 11.91 26.95 11.14C26.91 10.77 26.89 10.36 26.89 10.12L26.89 6.13L24.96 6.13L24.96 10.53C24.96 11.13 24.98 11.51 25.03 11.89C25.20 12.91 26.12 13.78 27.66 13.78C28.38 13.78 28.91 13.64 29.46 13.27L30.03 12.32L30.03 13.58L31.96 13.58ZM44.80 7.78C44.63 6.76 43.82 5.94 42.41 5.94C41.73 5.94 41.23 6.08 40.81 6.37L40.08 7.35C39.79 6.54 39.02 5.94 37.80 5.94C37.13 5.94 36.64 6.08 36.22 6.37L35.67 7.27L35.67 6.13L33.74 6.13L33.74 13.58L35.67 13.58L35.67 9.76C35.67 8.04 36.15 7.29 37.02 7.29C37.76 7.29 38.19 7.71 38.29 8.48C38.33 8.86 38.35 9.27 38.35 9.70L38.35 13.58L40.26 13.58L40.26 9.76C40.26 8.04 40.75 7.29 41.62 7.29C42.36 7.29 42.78 7.71 42.88 8.48C42.92 8.86 42.94 9.27 42.94 9.70L42.94 13.58L44.87 13.58L44.87 9.14C44.87 8.54 44.86 8.16 44.80 7.78ZM47.53 3.36C46.90 3.36 46.47 3.78 46.47 4.38C46.47 5.00 46.90 5.40 47.53 5.40C48.16 5.40 48.59 5.00 48.59 4.38C48.59 3.78 48.16 3.36 47.53 3.36ZM48.50 13.58L48.50 6.13L46.56 6.13L46.56 13.58ZM55.96 12.29L51.90 12.29L55.90 7.46L55.90 6.19L50.05 6.19L50.05 7.48L53.83 7.48L49.80 12.36L49.80 13.58L55.96 13.58ZM63.85 9.70C63.85 7.67 62.65 5.94 60.37 5.94C58.09 5.94 56.59 7.60 56.59 9.88C56.59 12.50 58.17 13.78 60.21 13.78C61.96 13.78 63.36 12.89 63.74 11.16L61.81 11.16C61.68 11.96 61.08 12.42 60.26 12.42C59.36 12.42 58.66 11.93 58.53 10.36L63.83 10.36C63.85 10.11 63.85 9.88 63.85 9.70ZM60.28 7.29C61.21 7.29 61.74 7.92 61.87 9.10L58.59 9.10C58.76 7.87 59.39 7.29 60.28 7.29Z"></path></g><!----><g data-v-423bf9ae="" id="e8398f4e-74b5-4af4-aab6-b55413efc9c6" transform="matrix(2.8125,0,0,2.8125,0,0)" stroke="none" fill="black"><path d="M9.382 8.675h13.943v13.943L32 31.293V0H.707zM22.618 23.325H8.675V9.382L0 .707V32h31.293z"></path></g><!----></svg>